<svg xmlns="http://www.w3.org/2000/svg" style="display: none;">
    
    <!-- Menu -->
    <symbol id="menu" viewBox="0 0 24 24" fill="none" stroke="currentColor" stroke-width="2" stroke-linecap="round" stroke-linejoin="round">
        <line x1="3" y1="12" x2="21" y2="12"></line>
        <line x1="3" y1="6" x2="21" y2="6"></line>
        <line x1="3" y1="18" x2="21" y2="18"></line>
    </symbol>
    
    <!-- Home -->
    <symbol id="home" viewBox="0 0 24 24" fill="none" stroke="currentColor" stroke-width="2" stroke-linecap="round" stroke-linejoin="round">
        <path d="M3 9l9-7 9 7v11a2 2 0 0 1-2 2H5a2 2 0 0 1-2-2z"></path>
        <polyline points="9 22 9 12 15 12 15 22"></polyline>
    </symbol>
    
    <!-- Package -->
    <symbol id="package" viewBox="0 0 24 24" fill="none" stroke="currentColor" stroke-width="2" stroke-linecap="round" stroke-linejoin="round">
        <line x1="16.5" y1="9.4" x2="7.5" y2="4.21"></line>
        <path d="M21 16V8a2 2 0 0 0-1-1.73l-7-4a2 2 0 0 0-2 0l-7 4A2 2 0 0 0 3 8v8a2 2 0 0 0 1 1.73l7 4a2 2 0 0 0 2 0l7-4A2 2 0 0 0 21 16z"></path>
        <polyline points="3.27 6.96 12 12.01 20.73 6.96"></polyline>
        <line x1="12" y1="22.08" x2="12" y2="12"></line>
    </symbol>
    
    <!-- Plus -->
    <symbol id="plus" viewBox="0 0 24 24" fill="none" stroke="currentColor" stroke-width="2" stroke-linecap="round" stroke-linejoin="round">
        <line x1="12" y1="5" x2="12" y2="19"></line>
        <line x1="5" y1="12" x2="19" y2="12"></line>
    </symbol>
    
    <!-- Search -->
    <symbol id="search" viewBox="0 0 24 24" fill="none" stroke="currentColor" stroke-width="2" stroke-linecap="round" stroke-linejoin="round">
        <circle cx="11" cy="11" r="8"></circle>
        <line x1="21" y1="21" x2="16.65" y2="16.65"></line>
    </symbol>
    
    <!-- User -->
    <symbol id="user" viewBox="0 0 24 24" fill="none" stroke="currentColor" stroke-width="2" stroke-linecap="round" stroke-linejoin="round">
        <path d="M20 21v-2a4 4 0 0 0-4-4H8a4 4 0 0 0-4 4v2"></path>
        <circle cx="12" cy="7" r="4"></circle>
    </symbol>
    
    <!-- Bell -->
    <symbol id="bell" viewBox="0 0 24 24" fill="none" stroke="currentColor" stroke-width="2" stroke-linecap="round" stroke-linejoin="round">
        <path d="M18 8A6 6 0 0 0 6 8c0 7-3 9-3 9h18s-3-2-3-9"></path>
        <path d="M13.73 21a2 2 0 0 1-3.46 0"></path>
    </symbol>
    
    <!-- X (Close) -->
    <symbol id="x" viewBox="0 0 24 24" fill="none" stroke="currentColor" stroke-width="2" stroke-linecap="round" stroke-linejoin="round">
        <line x1="18" y1="6" x2="6" y2="18"></line>
        <line x1="6" y1="6" x2="18" y2="18"></line>
    </symbol>
    
    <!-- Check -->
    <symbol id="check" viewBox="0 0 24 24" fill="none" stroke="currentColor" stroke-width="2" stroke-linecap="round" stroke-linejoin="round">
        <polyline points="20 6 9 17 4 12"></polyline>
    </symbol>
    
    <!-- Check Circle -->
    <symbol id="check-circle" viewBox="0 0 24 24" fill="none" stroke="currentColor" stroke-width="2" stroke-linecap="round" stroke-linejoin="round">
        <path d="M22 11.08V12a10 10 0 1 1-5.93-9.14"></path>
        <polyline points="22 4 12 14.01 9 11.01"></polyline>
    </symbol>
    
    <!-- Alert Circle -->
    <symbol id="alert-circle" viewBox="0 0 24 24" fill="none" stroke="currentColor" stroke-width="2" stroke-linecap="round" stroke-linejoin="round">
        <circle cx="12" cy="12" r="10"></circle>
        <line x1="12" y1="8" x2="12" y2="12"></line>
        <line x1="12" y1="16" x2="12.01" y2="16"></line>
    </symbol>
    
    <!-- Alert Triangle -->
    <symbol id="alert-triangle" viewBox="0 0 24 24" fill="none" stroke="currentColor" stroke-width="2" stroke-linecap="round" stroke-linejoin="round">
        <path d="M10.29 3.86L1.82 18a2 2 0 0 0 1.71 3h16.94a2 2 0 0 0 1.71-3L13.71 3.86a2 2 0 0 0-3.42 0z"></path>
        <line x1="12" y1="9" x2="12" y2="13"></line>
        <line x1="12" y1="17" x2="12.01" y2="17"></line>
    </symbol>
    
    <!-- Info -->
    <symbol id="info" viewBox="0 0 24 24" fill="none" stroke="currentColor" stroke-width="2" stroke-linecap="round" stroke-linejoin="round">
        <circle cx="12" cy="12" r="10"></circle>
        <line x1="12" y1="16" x2="12" y2="12"></line>
        <line x1="12" y1="8" x2="12.01" y2="8"></line>
    </symbol>
    
    <!-- Arrow Left -->
    <symbol id="arrow-left" viewBox="0 0 24 24" fill="none" stroke="currentColor" stroke-width="2" stroke-linecap="round" stroke-linejoin="round">
        <line x1="19" y1="12" x2="5" y2="12"></line>
        <polyline points="12 19 5 12 12 5"></polyline>
    </symbol>
    
    <!-- Arrow Right -->
    <symbol id="arrow-right" viewBox="0 0 24 24" fill="none" stroke="currentColor" stroke-width="2" stroke-linecap="round" stroke-linejoin="round">
        <line x1="5" y1="12" x2="19" y2="12"></line>
        <polyline points="12 5 19 12 12 19"></polyline>
    </symbol>
    
    <!-- Chevron Down -->
    <symbol id="chevron-down" viewBox="0 0 24 24" fill="none" stroke="currentColor" stroke-width="2" stroke-linecap="round" stroke-linejoin="round">
        <polyline points="6 9 12 15 18 9"></polyline>
    </symbol>
    
    <!-- Chevron Right -->
    <symbol id="chevron-right" viewBox="0 0 24 24" fill="none" stroke="currentColor" stroke-width="2" stroke-linecap="round" stroke-linejoin="round">
        <polyline points="9 18 15 12 9 6"></polyline>
    </symbol>
    
    <!-- Chevron Left -->
    <symbol id="chevron-left" viewBox="0 0 24 24" fill="none" stroke="currentColor" stroke-width="2" stroke-linecap="round" stroke-linejoin="round">
        <polyline points="15 18 9 12 15 6"></polyline>
    </symbol>
    
    <!-- Chevrons Left (double) -->
    <symbol id="chevrons-left" viewBox="0 0 24 24" fill="none" stroke="currentColor" stroke-width="2" stroke-linecap="round" stroke-linejoin="round">
        <polyline points="11 17 6 12 11 7"></polyline>
        <polyline points="18 17 13 12 18 7"></polyline>
    </symbol>
    
    <!-- Chevrons Right (double) -->
    <symbol id="chevrons-right" viewBox="0 0 24 24" fill="none" stroke="currentColor" stroke-width="2" stroke-linecap="round" stroke-linejoin="round">
        <polyline points="13 17 18 12 13 7"></polyline>
        <polyline points="6 17 11 12 6 7"></polyline>
    </symbol>
    
    <!-- Edit -->
    <symbol id="edit" viewBox="0 0 24 24" fill="none" stroke="currentColor" stroke-width="2" stroke-linecap="round" stroke-linejoin="round">
        <path d="M11 4H4a2 2 0 0 0-2 2v14a2 2 0 0 0 2 2h14a2 2 0 0 0 2-2v-7"></path>
        <path d="M18.5 2.5a2.121 2.121 0 0 1 3 3L12 15l-4 1 1-4 9.5-9.5z"></path>
    </symbol>
    
    <!-- Trash -->
    <symbol id="trash" viewBox="0 0 24 24" fill="none" stroke="currentColor" stroke-width="2" stroke-linecap="round" stroke-linejoin="round">
        <polyline points="3 6 5 6 21 6"></polyline>
        <path d="M19 6v14a2 2 0 0 1-2 2H7a2 2 0 0 1-2-2V6m3 0V4a2 2 0 0 1 2-2h4a2 2 0 0 1 2 2v2"></path>
    </symbol>
    
    <!-- Eye -->
    <symbol id="eye" viewBox="0 0 24 24" fill="none" stroke="currentColor" stroke-width="2" stroke-linecap="round" stroke-linejoin="round">
        <path d="M1 12s4-8 11-8 11 8 11 8-4 8-11 8-11-8-11-8z"></path>
        <circle cx="12" cy="12" r="3"></circle>
    </symbol>
    
    <!-- Eye Off -->
    <symbol id="eye-off" viewBox="0 0 24 24" fill="none" stroke="currentColor" stroke-width="2" stroke-linecap="round" stroke-linejoin="round">
        <path d="M17.94 17.94A10.07 10.07 0 0 1 12 20c-7 0-11-8-11-8a18.45 18.45 0 0 1 5.06-5.94M9.9 4.24A9.12 9.12 0 0 1 12 4c7 0 11 8 11 8a18.5 18.5 0 0 1-2.16 3.19m-6.72-1.07a3 3 0 1 1-4.24-4.24"></path>
        <line x1="1" y1="1" x2="23" y2="23"></line>
    </symbol>
    
    <!-- Map Pin -->
    <symbol id="map-pin" viewBox="0 0 24 24" fill="none" stroke="currentColor" stroke-width="2" stroke-linecap="round" stroke-linejoin="round">
        <path d="M21 10c0 7-9 13-9 13s-9-6-9-13a9 9 0 0 1 18 0z"></path>
        <circle cx="12" cy="10" r="3"></circle>
    </symbol>
    
    <!-- Calendar -->
    <symbol id="calendar" viewBox="0 0 24 24" fill="none" stroke="currentColor" stroke-width="2" stroke-linecap="round" stroke-linejoin="round">
        <rect x="3" y="4" width="18" height="18" rx="2" ry="2"></rect>
        <line x1="16" y1="2" x2="16" y2="6"></line>
        <line x1="8" y1="2" x2="8" y2="6"></line>
        <line x1="3" y1="10" x2="21" y2="10"></line>
    </symbol>
    
    <!-- Clock -->
    <symbol id="clock" viewBox="0 0 24 24" fill="none" stroke="currentColor" stroke-width="2" stroke-linecap="round" stroke-linejoin="round">
        <circle cx="12" cy="12" r="10"></circle>
        <polyline points="12 6 12 12 16 14"></polyline>
    </symbol>
    
    <!-- Truck -->
    <symbol id="truck" viewBox="0 0 24 24" fill="none" stroke="currentColor" stroke-width="2" stroke-linecap="round" stroke-linejoin="round">
        <rect x="1" y="3" width="15" height="13"></rect>
        <polygon points="16 8 20 8 23 11 23 16 16 16 16 8"></polygon>
        <circle cx="5.5" cy="18.5" r="2.5"></circle>
        <circle cx="18.5" cy="18.5" r="2.5"></circle>
    </symbol>
    
    <!-- Ship -->
    <symbol id="ship" viewBox="0 0 24 24" fill="none" stroke="currentColor" stroke-width="2" stroke-linecap="round" stroke-linejoin="round">
        <path d="M2 21c.6.5 1.2 1 2.5 1 2.5 0 2.5-2 5-2 1.3 0 1.9.5 2.5 1 .6.5 1.2 1 2.5 1 2.5 0 2.5-2 5-2 1.3 0 1.9.5 2.5 1"></path>
        <path d="M19.38 20A11.6 11.6 0 0 0 21 14l-9-4-9 4c0 2.9.94 5.34 2.81 7.76"></path>
        <path d="M19 13V7a2 2 0 0 0-2-2H7a2 2 0 0 0-2 2v6"></path>
        <path d="M12 10v4"></path>
        <path d="M12 2v3"></path>
    </symbol>
    
    <!-- Settings -->
    <symbol id="settings" viewBox="0 0 24 24" fill="none" stroke="currentColor" stroke-width="2" stroke-linecap="round" stroke-linejoin="round">
        <circle cx="12" cy="12" r="3"></circle>
        <path d="M19.4 15a1.65 1.65 0 0 0 .33 1.82l.06.06a2 2 0 0 1 0 2.83 2 2 0 0 1-2.83 0l-.06-.06a1.65 1.65 0 0 0-1.82-.33 1.65 1.65 0 0 0-1 1.51V21a2 2 0 0 1-2 2 2 2 0 0 1-2-2v-.09A1.65 1.65 0 0 0 9 19.4a1.65 1.65 0 0 0-1.82.33l-.06.06a2 2 0 0 1-2.83 0 2 2 0 0 1 0-2.83l.06-.06a1.65 1.65 0 0 0 .33-1.82 1.65 1.65 0 0 0-1.51-1H3a2 2 0 0 1-2-2 2 2 0 0 1 2-2h.09A1.65 1.65 0 0 0 4.6 9a1.65 1.65 0 0 0-.33-1.82l-.06-.06a2 2 0 0 1 0-2.83 2 2 0 0 1 2.83 0l.06.06a1.65 1.65 0 0 0 1.82.33H9a1.65 1.65 0 0 0 1-1.51V3a2 2 0 0 1 2-2 2 2 0 0 1 2 2v.09a1.65 1.65 0 0 0 1 1.51 1.65 1.65 0 0 0 1.82-.33l.06-.06a2 2 0 0 1 2.83 0 2 2 0 0 1 0 2.83l-.06.06a1.65 1.65 0 0 0-.33 1.82V9a1.65 1.65 0 0 0 1.51 1H21a2 2 0 0 1 2 2 2 2 0 0 1-2 2h-.09a1.65 1.65 0 0 0-1.51 1z"></path>
    </symbol>
    
    <!-- Log Out -->
    <symbol id="log-out" viewBox="0 0 24 24" fill="none" stroke="currentColor" stroke-width="2" stroke-linecap="round" stroke-linejoin="round">
        <path d="M9 21H5a2 2 0 0 1-2-2V5a2 2 0 0 1 2-2h4"></path>
        <polyline points="16 17 21 12 16 7"></polyline>
        <line x1="21" y1="12" x2="9" y2="12"></line>
    </symbol>
    
    <!-- Filter -->
    <symbol id="filter" viewBox="0 0 24 24" fill="none" stroke="currentColor" stroke-width="2" stroke-linecap="round" stroke-linejoin="round">
        <polygon points="22 3 2 3 10 12.46 10 19 14 21 14 12.46 22 3"></polygon>
    </symbol>
    
    <!-- Refresh -->
    <symbol id="refresh" viewBox="0 0 24 24" fill="none" stroke="currentColor" stroke-width="2" stroke-linecap="round" stroke-linejoin="round">
        <polyline points="23 4 23 10 17 10"></polyline>
        <polyline points="1 20 1 14 7 14"></polyline>
        <path d="M3.51 9a9 9 0 0 1 14.85-3.36L23 10M1 14l4.64 4.36A9 9 0 0 0 20.49 15"></path>
    </symbol>
    
    <!-- Copy -->
    <symbol id="copy" viewBox="0 0 24 24" fill="none" stroke="currentColor" stroke-width="2" stroke-linecap="round" stroke-linejoin="round">
        <rect x="9" y="9" width="13" height="13" rx="2" ry="2"></rect>
        <path d="M5 15H4a2 2 0 0 1-2-2V4a2 2 0 0 1 2-2h9a2 2 0 0 1 2 2v1"></path>
    </symbol>
    
    <!-- Phone -->
    <symbol id="phone" viewBox="0 0 24 24" fill="none" stroke="currentColor" stroke-width="2" stroke-linecap="round" stroke-linejoin="round">
        <path d="M22 16.92v3a2 2 0 0 1-2.18 2 19.79 19.79 0 0 1-8.63-3.07 19.5 19.5 0 0 1-6-6 19.79 19.79 0 0 1-3.07-8.67A2 2 0 0 1 4.11 2h3a2 2 0 0 1 2 1.72 12.84 12.84 0 0 0 .7 2.81 2 2 0 0 1-.45 2.11L8.09 9.91a16 16 0 0 0 6 6l1.27-1.27a2 2 0 0 1 2.11-.45 12.84 12.84 0 0 0 2.81.7A2 2 0 0 1 22 16.92z"></path>
    </symbol>
    
    <!-- Mail -->
    <symbol id="mail" viewBox="0 0 24 24" fill="none" stroke="currentColor" stroke-width="2" stroke-linecap="round" stroke-linejoin="round">
        <path d="M4 4h16c1.1 0 2 .9 2 2v12c0 1.1-.9 2-2 2H4c-1.1 0-2-.9-2-2V6c0-1.1.9-2 2-2z"></path>
        <polyline points="22,6 12,13 2,6"></polyline>
    </symbol>
    
    <!-- File Text -->
    <symbol id="file-text" viewBox="0 0 24 24" fill="none" stroke="currentColor" stroke-width="2" stroke-linecap="round" stroke-linejoin="round">
        <path d="M14 2H6a2 2 0 0 0-2 2v16a2 2 0 0 0 2 2h12a2 2 0 0 0 2-2V8z"></path>
        <polyline points="14 2 14 8 20 8"></polyline>
        <line x1="16" y1="13" x2="8" y2="13"></line>
        <line x1="16" y1="17" x2="8" y2="17"></line>
        <polyline points="10 9 9 9 8 9"></polyline>
    </symbol>
    
    <!-- Box -->
    <symbol id="box" viewBox="0 0 24 24" fill="none" stroke="currentColor" stroke-width="2" stroke-linecap="round" stroke-linejoin="round">
        <path d="M21 16V8a2 2 0 0 0-1-1.73l-7-4a2 2 0 0 0-2 0l-7 4A2 2 0 0 0 3 8v8a2 2 0 0 0 1 1.73l7 4a2 2 0 0 0 2 0l7-4A2 2 0 0 0 21 16z"></path>
        <polyline points="3.27 6.96 12 12.01 20.73 6.96"></polyline>
        <line x1="12" y1="22.08" x2="12" y2="12"></line>
    </symbol>
    
    <!-- Calculator -->
    <symbol id="calculator" viewBox="0 0 24 24" fill="none" stroke="currentColor" stroke-width="2" stroke-linecap="round" stroke-linejoin="round">
        <rect x="4" y="2" width="16" height="20" rx="2"></rect>
        <rect x="8" y="6" width="8" height="4"></rect>
        <line x1="8" y1="14" x2="8.01" y2="14"></line>
        <line x1="12" y1="14" x2="12.01" y2="14"></line>
        <line x1="16" y1="14" x2="16.01" y2="14"></line>
        <line x1="8" y1="18" x2="8.01" y2="18"></line>
        <line x1="12" y1="18" x2="12.01" y2="18"></line>
        <line x1="16" y1="18" x2="16.01" y2="18"></line>
    </symbol>
    
    <!-- Printer -->
    <symbol id="printer" viewBox="0 0 24 24" fill="none" stroke="currentColor" stroke-width="2" stroke-linecap="round" stroke-linejoin="round">
        <polyline points="6 9 6 2 18 2 18 9"></polyline>
        <path d="M6 18H4a2 2 0 0 1-2-2v-5a2 2 0 0 1 2-2h16a2 2 0 0 1 2 2v5a2 2 0 0 1-2 2h-2"></path>
        <rect x="6" y="14" width="12" height="8"></rect>
    </symbol>
    
    <!-- Download -->
    <symbol id="download" viewBox="0 0 24 24" fill="none" stroke="currentColor" stroke-width="2" stroke-linecap="round" stroke-linejoin="round">
        <path d="M21 15v4a2 2 0 0 1-2 2H5a2 2 0 0 1-2-2v-4"></path>
        <polyline points="7 10 12 15 17 10"></polyline>
        <line x1="12" y1="15" x2="12" y2="3"></line>
    </symbol>
    
    <!-- Camera -->
    <symbol id="camera" viewBox="0 0 24 24" fill="none" stroke="currentColor" stroke-width="2" stroke-linecap="round" stroke-linejoin="round">
        <path d="M23 19a2 2 0 0 1-2 2H3a2 2 0 0 1-2-2V8a2 2 0 0 1 2-2h4l2-3h6l2 3h4a2 2 0 0 1 2 2z"></path>
        <circle cx="12" cy="13" r="4"></circle>
    </symbol>
    
    <!-- Image -->
    <symbol id="image" viewBox="0 0 24 24" fill="none" stroke="currentColor" stroke-width="2" stroke-linecap="round" stroke-linejoin="round">
        <rect x="3" y="3" width="18" height="18" rx="2" ry="2"></rect>
        <circle cx="8.5" cy="8.5" r="1.5"></circle>
        <polyline points="21 15 16 10 5 21"></polyline>
    </symbol>
    
    <!-- Users -->
    <symbol id="users" viewBox="0 0 24 24" fill="none" stroke="currentColor" stroke-width="2" stroke-linecap="round" stroke-linejoin="round">
        <path d="M17 21v-2a4 4 0 0 0-4-4H5a4 4 0 0 0-4 4v2"></path>
        <circle cx="9" cy="7" r="4"></circle>
        <path d="M23 21v-2a4 4 0 0 0-3-3.87"></path>
        <path d="M16 3.13a4 4 0 0 1 0 7.75"></path>
    </symbol>
    
    <!-- Dollar Sign -->
    <symbol id="dollar-sign" viewBox="0 0 24 24" fill="none" stroke="currentColor" stroke-width="2" stroke-linecap="round" stroke-linejoin="round">
        <line x1="12" y1="1" x2="12" y2="23"></line>
        <path d="M17 5H9.5a3.5 3.5 0 0 0 0 7h5a3.5 3.5 0 0 1 0 7H6"></path>
    </symbol>
    
    <!-- Message Square (SMS) -->
    <symbol id="message-square" viewBox="0 0 24 24" fill="none" stroke="currentColor" stroke-width="2" stroke-linecap="round" stroke-linejoin="round">
        <path d="M21 15a2 2 0 0 1-2 2H7l-4 4V5a2 2 0 0 1 2-2h14a2 2 0 0 1 2 2z"></path>
    </symbol>
    
    <!-- Message Circle (WhatsApp) -->
    <symbol id="message-circle" viewBox="0 0 24 24" fill="none" stroke="currentColor" stroke-width="2" stroke-linecap="round" stroke-linejoin="round">
        <path d="M21 11.5a8.38 8.38 0 0 1-.9 3.8 8.5 8.5 0 0 1-7.6 4.7 8.38 8.38 0 0 1-3.8-.9L3 21l1.9-5.7a8.38 8.38 0 0 1-.9-3.8 8.5 8.5 0 0 1 4.7-7.6 8.38 8.38 0 0 1 3.8-.9h.5a8.48 8.48 0 0 1 8 8v.5z"></path>
    </symbol>
    
    <!-- Send -->
    <symbol id="send" viewBox="0 0 24 24" fill="none" stroke="currentColor" stroke-width="2" stroke-linecap="round" stroke-linejoin="round">
        <line x1="22" y1="2" x2="11" y2="13"></line>
        <polygon points="22 2 15 22 11 13 2 9 22 2"></polygon>
    </symbol>
    
    <!-- Sun -->
    <symbol id="sun" viewBox="0 0 24 24" fill="none" stroke="currentColor" stroke-width="2" stroke-linecap="round" stroke-linejoin="round">
        <circle cx="12" cy="12" r="5"></circle>
        <line x1="12" y1="1" x2="12" y2="3"></line>
        <line x1="12" y1="21" x2="12" y2="23"></line>
        <line x1="4.22" y1="4.22" x2="5.64" y2="5.64"></line>
        <line x1="18.36" y1="18.36" x2="19.78" y2="19.78"></line>
        <line x1="1" y1="12" x2="3" y2="12"></line>
        <line x1="21" y1="12" x2="23" y2="12"></line>
        <line x1="4.22" y1="19.78" x2="5.64" y2="18.36"></line>
        <line x1="18.36" y1="5.64" x2="19.78" y2="4.22"></line>
    </symbol>
    
    <!-- X Circle -->
    <symbol id="x-circle" viewBox="0 0 24 24" fill="none" stroke="currentColor" stroke-width="2" stroke-linecap="round" stroke-linejoin="round">
        <circle cx="12" cy="12" r="10"></circle>
        <line x1="15" y1="9" x2="9" y2="15"></line>
        <line x1="9" y1="9" x2="15" y2="15"></line>
    </symbol>
    
    <!-- Save -->
    <symbol id="save" viewBox="0 0 24 24" fill="none" stroke="currentColor" stroke-width="2" stroke-linecap="round" stroke-linejoin="round">
        <path d="M19 21H5a2 2 0 0 1-2-2V5a2 2 0 0 1 2-2h11l5 5v11a2 2 0 0 1-2 2z"></path>
        <polyline points="17 21 17 13 7 13 7 21"></polyline>
        <polyline points="7 3 7 8 15 8"></polyline>
    </symbol>
    
    <!-- Credit Card -->
    <symbol id="credit-card" viewBox="0 0 24 24" fill="none" stroke="currentColor" stroke-width="2" stroke-linecap="round" stroke-linejoin="round">
        <rect x="1" y="4" width="22" height="16" rx="2" ry="2"></rect>
        <line x1="1" y1="10" x2="23" y2="10"></line>
    </symbol>
    
    <!-- Trending Up -->
    <symbol id="trending-up" viewBox="0 0 24 24" fill="none" stroke="currentColor" stroke-width="2" stroke-linecap="round" stroke-linejoin="round">
        <polyline points="23 6 13.5 15.5 8.5 10.5 1 18"></polyline>
        <polyline points="17 6 23 6 23 12"></polyline>
    </symbol>
    
    <!-- Smartphone -->
    <symbol id="smartphone" viewBox="0 0 24 24" fill="none" stroke="currentColor" stroke-width="2" stroke-linecap="round" stroke-linejoin="round">
        <rect x="5" y="2" width="14" height="20" rx="2" ry="2"></rect>
        <line x1="12" y1="18" x2="12.01" y2="18"></line>
    </symbol>
    
    <!-- Building -->
    <symbol id="building" viewBox="0 0 24 24" fill="none" stroke="currentColor" stroke-width="2" stroke-linecap="round" stroke-linejoin="round">
        <rect x="4" y="2" width="16" height="20" rx="2" ry="2"></rect>
        <path d="M9 22v-4h6v4"></path>
        <path d="M8 6h.01"></path>
        <path d="M16 6h.01"></path>
        <path d="M12 6h.01"></path>
        <path d="M12 10h.01"></path>
        <path d="M12 14h.01"></path>
        <path d="M16 10h.01"></path>
        <path d="M16 14h.01"></path>
        <path d="M8 10h.01"></path>
        <path d="M8 14h.01"></path>
    </symbol>
    
    <!-- Minus -->
    <symbol id="minus" viewBox="0 0 24 24" fill="none" stroke="currentColor" stroke-width="2" stroke-linecap="round" stroke-linejoin="round">
        <line x1="5" y1="12" x2="19" y2="12"></line>
    </symbol>
    
    <!-- List -->
    <symbol id="list" viewBox="0 0 24 24" fill="none" stroke="currentColor" stroke-width="2" stroke-linecap="round" stroke-linejoin="round">
        <line x1="8" y1="6" x2="21" y2="6"></line>
        <line x1="8" y1="12" x2="21" y2="12"></line>
        <line x1="8" y1="18" x2="21" y2="18"></line>
        <line x1="3" y1="6" x2="3.01" y2="6"></line>
        <line x1="3" y1="12" x2="3.01" y2="12"></line>
        <line x1="3" y1="18" x2="3.01" y2="18"></line>
    </symbol>
    
    <!-- Scan (barcode) -->
    <symbol id="scan" viewBox="0 0 24 24" fill="none" stroke="currentColor" stroke-width="2" stroke-linecap="round" stroke-linejoin="round">
        <path d="M3 7V5a2 2 0 0 1 2-2h2"></path>
        <path d="M17 3h2a2 2 0 0 1 2 2v2"></path>
        <path d="M21 17v2a2 2 0 0 1-2 2h-2"></path>
        <path d="M7 21H5a2 2 0 0 1-2-2v-2"></path>
        <line x1="7" y1="12" x2="17" y2="12"></line>
    </symbol>
    
    <!-- Scale -->
    <symbol id="scale" viewBox="0 0 24 24" fill="none" stroke="currentColor" stroke-width="2" stroke-linecap="round" stroke-linejoin="round">
        <path d="M16 16l3-8 3 8c-.87.65-1.92 1-3 1s-2.13-.35-3-1z"></path>
        <path d="M2 16l3-8 3 8c-.87.65-1.92 1-3 1s-2.13-.35-3-1z"></path>
        <path d="M7 21h10"></path>
        <path d="M12 3v18"></path>
        <path d="M3 7h2c2 0 5-1 7-2 2 1 5 2 7 2h2"></path>
    </symbol>
    
    <!-- User Check -->
    <symbol id="user-check" viewBox="0 0 24 24" fill="none" stroke="currentColor" stroke-width="2" stroke-linecap="round" stroke-linejoin="round">
        <path d="M16 21v-2a4 4 0 0 0-4-4H5a4 4 0 0 0-4 4v2"></path>
        <circle cx="8.5" cy="7" r="4"></circle>
        <polyline points="17 11 19 13 23 9"></polyline>
    </symbol>
    
    <!-- User Plus -->
    <symbol id="user-plus" viewBox="0 0 24 24" fill="none" stroke="currentColor" stroke-width="2" stroke-linecap="round" stroke-linejoin="round">
        <path d="M16 21v-2a4 4 0 0 0-4-4H5a4 4 0 0 0-4 4v2"></path>
        <circle cx="8.5" cy="7" r="4"></circle>
        <line x1="20" y1="8" x2="20" y2="14"></line>
        <line x1="23" y1="11" x2="17" y2="11"></line>
    </symbol>
    
    <!-- User X -->
    <symbol id="user-x" viewBox="0 0 24 24" fill="none" stroke="currentColor" stroke-width="2" stroke-linecap="round" stroke-linejoin="round">
        <path d="M16 21v-2a4 4 0 0 0-4-4H5a4 4 0 0 0-4 4v2"></path>
        <circle cx="8.5" cy="7" r="4"></circle>
        <line x1="18" y1="8" x2="23" y2="13"></line>
        <line x1="23" y1="8" x2="18" y2="13"></line>
    </symbol>
    
    <!-- Sliders -->
    <symbol id="sliders" viewBox="0 0 24 24" fill="none" stroke="currentColor" stroke-width="2" stroke-linecap="round" stroke-linejoin="round">
        <line x1="4" y1="21" x2="4" y2="14"></line>
        <line x1="4" y1="10" x2="4" y2="3"></line>
        <line x1="12" y1="21" x2="12" y2="12"></line>
        <line x1="12" y1="8" x2="12" y2="3"></line>
        <line x1="20" y1="21" x2="20" y2="16"></line>
        <line x1="20" y1="12" x2="20" y2="3"></line>
        <line x1="1" y1="14" x2="7" y2="14"></line>
        <line x1="9" y1="8" x2="15" y2="8"></line>
        <line x1="17" y1="16" x2="23" y2="16"></line>
    </symbol>

    <!-- Megaphone (Annonces) -->
    <symbol id="megaphone" viewBox="0 0 24 24" fill="none" stroke="currentColor" stroke-width="2" stroke-linecap="round" stroke-linejoin="round">
        <path d="M3 11l18-5v12L3 13v-2z"></path>
        <path d="M11.6 16.8a3 3 0 1 1-5.8-1.6"></path>
    </symbol>

    <!-- Briefcase (RH/Paie) -->
    <symbol id="briefcase" viewBox="0 0 24 24" fill="none" stroke="currentColor" stroke-width="2" stroke-linecap="round" stroke-linejoin="round">
        <rect x="2" y="7" width="20" height="14" rx="2" ry="2"></rect>
        <path d="M16 21V5a2 2 0 0 0-2-2h-4a2 2 0 0 0-2 2v16"></path>
    </symbol>

    <!-- User Cog (Personnel) -->
    <symbol id="user-cog" viewBox="0 0 24 24" fill="none" stroke="currentColor" stroke-width="2" stroke-linecap="round" stroke-linejoin="round">
        <path d="M16 21v-2a4 4 0 0 0-4-4H5a4 4 0 0 0-4 4v2"></path>
        <circle cx="8.5" cy="7" r="4"></circle>
        <circle cx="19" cy="11" r="2"></circle>
        <path d="M19 8v1"></path>
        <path d="M19 13v1"></path>
        <path d="M16.5 9.5l.9.4"></path>
        <path d="M20.7 12.1l.9.4"></path>
        <path d="M16.5 12.5l.9-.4"></path>
        <path d="M20.7 9.9l.9-.4"></path>
    </symbol>

    <!-- Book Open (Guide) -->
    <symbol id="book-open" viewBox="0 0 24 24" fill="none" stroke="currentColor" stroke-width="2" stroke-linecap="round" stroke-linejoin="round">
        <path d="M2 3h6a4 4 0 0 1 4 4v14a3 3 0 0 0-3-3H2z"></path>
        <path d="M22 3h-6a4 4 0 0 0-4 4v14a3 3 0 0 1 3-3h7z"></path>
    </symbol>

    <!-- Zap (Test Webhooks) -->
    <symbol id="zap" viewBox="0 0 24 24" fill="none" stroke="currentColor" stroke-width="2" stroke-linecap="round" stroke-linejoin="round">
        <polygon points="13 2 3 14 12 14 11 22 21 10 12 10 13 2"></polygon>
    </symbol>

    <!-- Message Circle (Support) -->
    <symbol id="message-circle" viewBox="0 0 24 24" fill="none" stroke="currentColor" stroke-width="2" stroke-linecap="round" stroke-linejoin="round">
        <path d="M21 11.5a8.38 8.38 0 0 1-.9 3.8 8.5 8.5 0 0 1-7.6 4.7 8.38 8.38 0 0 1-3.8-.9L3 21l1.9-5.7a8.38 8.38 0 0 1-.9-3.8 8.5 8.5 0 0 1 4.7-7.6 8.38 8.38 0 0 1 3.8-.9h.5a8.48 8.48 0 0 1 8 8v.5z"></path>
    </symbol>

</svg>
